<svg id="Layer_1" data-name="Layer 1" xmlns="http://www.w3.org/2000/svg" xmlns:xlink="http://www.w3.org/1999/xlink" viewBox="0 0 22.59 27.44"><defs><style>.cls-1{fill:none;}.cls-2{clip-path:url(#clip-path);}.cls-3{fill:#f1f2f2;}</style><clipPath id="clip-path" transform="translate(-4.78 -1.88)"><rect class="cls-1" x="4.41" y="1.4" width="22.73" height="27.64"/></clipPath></defs><title>bus</title><g class="cls-2"><path class="cls-3" d="M24.36,29.31H23.07c-1.32-.81-.91-2.23-1.1-3.39H10c0,1.33.21,2.67-1.18,3.39h-1c-1.44-.74-1-2.2-1.21-3.41l-1.67-.19a2.51,2.51,0,0,1-.11-.46,97.86,97.86,0,0,1,1-18.88A3.44,3.44,0,0,1,8,3.52a20.66,20.66,0,0,1,16.17,0A3.21,3.21,0,0,1,26.2,6.41c.15,1.62.54,3.23.62,4.85.24,4.79.38,9.59.56,14.41l-1.9.23.28.19ZM16,15.15c2.62,0,5.25,0,7.87,0,1,0,1.42-.41,1.28-1.39-.25-1.78-.58-3.56-.73-5.35-.11-1.27-.65-1.68-1.89-1.67-4.34,0-8.69.07-13,0-1.39,0-1.8.61-1.93,1.8-.19,1.66-.42,3.32-.67,5-.2,1.38,0,1.62,1.35,1.63C10.85,15.16,13.43,15.15,16,15.15ZM15.9,5.36c1.46,0,2.92,0,4.38,0,.34,0,.65-.46,1-.7-.32-.2-.64-.58-1-.58C17.46,4,14.62,4,11.78,4c-.33,0-.65.46-1,.7.32.2.63.57,1,.58C13.14,5.4,14.52,5.36,15.9,5.36ZM8.51,22.14a1.43,1.43,0,0,0,1.37-1.58,1.4,1.4,0,0,0-1.61-1.45,1.38,1.38,0,0,0-1.43,1.5C6.84,21.57,7.41,22.09,8.51,22.14Zm15.14,0a1.4,1.4,0,0,0,1.54-1.52,1.34,1.34,0,0,0-1.4-1.5,1.38,1.38,0,0,0-1.6,1.44A1.4,1.4,0,0,0,23.65,22.14Z" transform="translate(-4.78 -1.88)"/></g></svg>