<svg id="Layer_1" data-name="Layer 1" xmlns="http://www.w3.org/2000/svg" xmlns:xlink="http://www.w3.org/1999/xlink" viewBox="0 0 162.42 92.13"><defs><style>.cls-1{fill:#8dc63f;}.cls-2{fill:url(#linear-gradient);}.cls-3{fill:url(#linear-gradient-2);}</style><linearGradient id="linear-gradient" x1="172.03" y1="55.79" x2="89.65" y2="91.15" gradientUnits="userSpaceOnUse"><stop offset="0.54" stop-color="#8dc63f"/><stop offset="1" stop-color="#009444"/></linearGradient><linearGradient id="linear-gradient-2" x1="4" y1="43.15" x2="82.58" y2="43.15" gradientUnits="userSpaceOnUse"><stop offset="0.22" stop-color="#8dc63f"/><stop offset="0.49" stop-color="#8dc63f"/><stop offset="1" stop-color="#009444"/></linearGradient></defs><title>eologo</title><path class="cls-1" d="M120.8,6.42A46.08,46.08,0,0,0,76,63.31a24,24,0,0,0,1.39-8.08l16.1.6c-.1-.9,3.12-2.41,3.12-3.34a24.16,24.16,0,1,1,2.12,9.9A45.91,45.91,0,0,1,88.3,85.1,46.06,46.06,0,1,0,120.8,6.42Z" transform="translate(-4.45 -6.42)"/><path class="cls-1" d="M26.35,52.49A24.16,24.16,0,0,1,61,30.71L43.25,46.07l-3.71,3.22A10.27,10.27,0,0,0,46.8,66.82a11.39,11.39,0,0,0,7.26-3L72,48.24A45.86,45.86,0,0,1,83,19.88a46,46,0,0,0-69.52,60C19.24,75,25,70.13,31.58,67.48A24,24,0,0,1,26.35,52.49Z" transform="translate(-4.45 -6.42)"/><path class="cls-1" d="M95.29,41.67a24,24,0,0,0-1.39,8.08L78,49.9c.1.9-3.37,1.66-3.37,2.59a24.15,24.15,0,0,1-43.09,15C25,70.13,19.24,75,13.5,79.89A46.06,46.06,0,0,0,95.29,41.67Z" transform="translate(-4.45 -6.42)"/><path class="cls-2" d="M144.23,46.59a24.16,24.16,0,0,1-45.47,15.8A45.91,45.91,0,0,1,88.3,85.1a46.06,46.06,0,0,0,78.2-38.51Z" transform="translate(-4.45 -6.42)"/><path class="cls-3" d="M26.35,52.49A24.16,24.16,0,0,1,61,30.71L43.25,46.07l-3.71,3.22A10.27,10.27,0,0,0,46.8,66.82a11.39,11.39,0,0,0,7.26-3L72,48.24A45.86,45.86,0,0,1,83,19.88a46,46,0,0,0-69.52,60C19.24,75,25,70.13,31.58,67.48A24,24,0,0,1,26.35,52.49Z" transform="translate(-4.45 -6.42)"/></svg>