<svg id="Layer_1" data-name="Layer 1" xmlns="http://www.w3.org/2000/svg" viewBox="0 0 29.66 26.32"><defs><style>.cls-1{fill:#f1f2f2;stroke:#f1f2f2;stroke-miterlimit:10;stroke-width:2px;}</style></defs><title>heart</title><path class="cls-1" d="M29.63,12c-.75,2.68-2.7,4.49-4.59,6.34-2.75,2.69-5.46,5.42-8.18,8.13-1,.94-1.17.95-2.11,0C11.36,23.15,8,19.75,4.59,16.4A11.37,11.37,0,0,1,2,12V9a7,7,0,0,0,.4-.84,7.5,7.5,0,0,1,9.55-4.86A25.87,25.87,0,0,1,16,5.66c.31-.26.73-.65,1.18-1a7.42,7.42,0,0,1,10.07.46c1.06,1.12,1.6,2.73,2.38,4.12ZM16,25.18,26.3,14.82a6.12,6.12,0,0,0,.54-.67,6,6,0,0,0-3-9.29c-2.83-.87-5,.2-6.93,2.26-.91,1-1.16,1-2.1,0-.39-.38-.76-.77-1.17-1.12a6,6,0,0,0-8.14.17A5.81,5.81,0,0,0,5,14.39C8.53,18.06,12.25,21.51,16,25.18Z" transform="translate(-0.97 -1.91)"/></svg>