<svg id="Layer_1" data-name="Layer 1" xmlns="http://www.w3.org/2000/svg" viewBox="0 0 21.29 31.75"><defs><style>.cls-1{fill:#f1f2f2;}</style></defs><title>marker</title><path class="cls-1" d="M26.94,11.48a11.23,11.23,0,0,1-.94,4.3,82.21,82.21,0,0,1-6.49,12.59c-.72,1.21-1.44,2.42-2.19,3.62A1.28,1.28,0,0,1,15,32,121.31,121.31,0,0,1,7.55,18.13,24.69,24.69,0,0,1,5.8,12.77a9.63,9.63,0,0,1,2.9-8.58,10.63,10.63,0,0,1,18.24,7.29ZM16.19,28.6c.87-1.54,1.69-3,2.49-4.43,1.47-2.69,3-5.36,4.34-8.11a11.47,11.47,0,0,0,1.28-4.2A8,8,0,0,0,13,4.26c-3.55,1.55-5.83,5.86-4.34,9.6.74,1.85,1.54,3.69,2.46,5.46C12.76,22.41,14.47,25.44,16.19,28.6Z" transform="translate(-5.66 -0.97)"/><path class="cls-1" d="M16.31,7.63a3.92,3.92,0,0,1,0,7.84,3.92,3.92,0,1,1,0-7.84Z" transform="translate(-5.66 -0.97)"/></svg>