<svg id="Layer_1" data-name="Layer 1" xmlns="http://www.w3.org/2000/svg" viewBox="0 0 26.26 26.27"><defs><style>.cls-1{fill:#151741;}</style></defs><title>pen</title><path class="cls-1" d="M3.74,22.62a13.59,13.59,0,0,0,1.13-.92c5-5,9.91-9.91,14.76-14.77l5.48,5.51c-.15.16-.47.52-.81.87q-6.95,7-13.9,13.92a13.39,13.39,0,0,0-.92,1.14H3.74Z" transform="translate(-3.74 -2.09)"/><path class="cls-1" d="M21.5,5c.79-.75,1.65-1.62,2.57-2.42a1.46,1.46,0,0,1,2.19.1l3.19,3.19a1.48,1.48,0,0,1,0,2.29c-.8.86-1.63,1.7-2.37,2.46Z" transform="translate(-3.74 -2.09)"/></svg>