<svg id="Layer_1" data-name="Layer 1" xmlns="http://www.w3.org/2000/svg" viewBox="0 0 20.36 30.5"><defs><style>.cls-1{fill:#f1f2f2;}</style></defs><title>person</title><path class="cls-1" d="M16.51,6.18a2.55,2.55,0,0,0,2.56-2.49,2.55,2.55,0,0,0-5.11,0A2.55,2.55,0,0,0,16.51,6.18Z" transform="translate(-5.18 -1.14)"/><path class="cls-1" d="M19.1,31.64a2.1,2.1,0,0,1-1.2-2.21q.07-2.66,0-5.32a2,2,0,0,0-.51-1.21c-1-1.09-2.07-2.12-3.25-3.31-.19,1-.4,1.9-.49,2.78a5.54,5.54,0,0,1-1.51,3.41C10.69,27.33,9.38,29,8,30.59A1.55,1.55,0,0,1,5.7,31c-.7-.6-.69-1.47,0-2.34,1.16-1.4,2.38-2.77,3.47-4.23a5,5,0,0,0,.77-2c.72-3.54,1.38-7.09,2.06-10.64a1.6,1.6,0,0,0,0-.3l-.21-.16a9.6,9.6,0,0,0-1.28,1.42c-.63,1-1.14,2.16-1.71,3.24a1.31,1.31,0,1,1-2.33-1.17C7.25,13.41,8,12,8.77,10.63a2.49,2.49,0,0,1,.87-.85C11,9,12.39,8.2,13.77,7.42a3,3,0,0,1,4.41,1.32c.78,1.5,1.47,3,2.27,4.54a1.54,1.54,0,0,0,.9.68c1,.24,1.94.35,2.91.53s1.43.82,1.24,1.64a1.35,1.35,0,0,1-1.73.91c-1.3-.26-2.59-.55-3.9-.79a1.72,1.72,0,0,1-1.35-1c-.28-.58-.58-1.15-1-2-.29,1.37-.54,2.52-.75,3.67,0,.14.19.35.33.49,1.08,1.16,2.21,2.29,3.24,3.5a2.52,2.52,0,0,1,.58,1.46c.06,2.53,0,5.06,0,7.58a1.8,1.8,0,0,1-1.25,1.69Z" transform="translate(-5.18 -1.14)"/><path class="cls-1" d="M16.51,6.18A2.55,2.55,0,0,1,14,3.67a2.55,2.55,0,0,1,5.11,0A2.55,2.55,0,0,1,16.51,6.18Z" transform="translate(-5.18 -1.14)"/></svg>