<svg id="Layer_1" data-name="Layer 1" xmlns="http://www.w3.org/2000/svg" viewBox="0 0 29.11 27.5"><defs><style>.cls-1{fill:#8dc63f;}</style></defs><title>profile</title><path class="cls-1" d="M15.67,28.62H2.73a3.77,3.77,0,0,1-.68-.06,1,1,0,0,1-.92-1.25A14.66,14.66,0,0,1,8.31,16.64c.52-.32.52-.3,1,.11a9.4,9.4,0,0,0,5.14,2.32A9.58,9.58,0,0,0,21.77,17l.1-.07c.73-.6.73-.6,1.53-.09a14.72,14.72,0,0,1,6.72,9.83,5.44,5.44,0,0,1,.11.83,1,1,0,0,1-.81,1,4.09,4.09,0,0,1-.79.08Z" transform="translate(-1.12 -1.12)"/><path class="cls-1" d="M15.65,17.73A8.3,8.3,0,1,1,24,9.54,8.34,8.34,0,0,1,15.65,17.73Z" transform="translate(-1.12 -1.12)"/></svg>