<svg id="Layer_1" data-name="Layer 1" xmlns="http://www.w3.org/2000/svg" viewBox="0 0 29.14 29.15"><defs><style>.cls-1{fill:#8dc63f;stroke:#8ec640;stroke-miterlimit:10;}</style></defs><title>sun</title><path class="cls-1" d="M16.06,1.15a5.3,5.3,0,0,1,.46,1.32c.07,1,0,1.95,0,2.93a2,2,0,0,1,0,.45c-.09.4-.28.76-.76.73a.73.73,0,0,1-.7-.8c0-1.26,0-2.52,0-3.77,0-.3.3-.58.46-.87Z" transform="translate(-1.2 -0.65)"/><path class="cls-1" d="M1.7,15A5.3,5.3,0,0,1,3,14.53c1-.07,1.95,0,2.93,0a2,2,0,0,1,.45,0c.4.09.76.28.73.76a.73.73,0,0,1-.8.7c-1.26,0-2.52,0-3.77,0-.3,0-.58-.3-.87-.46Z" transform="translate(-1.2 -0.65)"/><path class="cls-1" d="M15.83,22a6.7,6.7,0,0,1-6.75-6.74,6.6,6.6,0,0,1,6.73-6.74,6.6,6.6,0,0,1,6.72,6.68A6.7,6.7,0,0,1,15.83,22Zm5.23-6.75A5.16,5.16,0,0,0,15.8,10a5.17,5.17,0,0,0-5.26,5.26,5.16,5.16,0,0,0,5.26,5.26A5.16,5.16,0,0,0,21.06,15.25Z" transform="translate(-1.2 -0.65)"/><path class="cls-1" d="M27.13,16c-.56,0-1.13,0-1.69,0s-1-.15-1-.73.44-.75.93-.75q1.75,0,3.51,0c.49,0,.95.17.93.76s-.47.72-1,.73Z" transform="translate(-1.2 -0.65)"/><path class="cls-1" d="M15.06,26.57c0-.58,0-1.17,0-1.75s.18-.89.73-.9.74.41.75.88q0,1.82,0,3.64c0,.47-.21.88-.76.86s-.7-.44-.72-.91S15.06,27.18,15.06,26.57Z" transform="translate(-1.2 -0.65)"/><path class="cls-1" d="M6.31,5a3.76,3.76,0,0,1,.66.4C7.84,6.25,8.69,7.11,9.54,8c.33.34.53.72.14,1.13s-.79.24-1.13-.1C7.69,8.16,6.81,7.32,6,6.42a1.31,1.31,0,0,1-.23-.92C5.78,5.33,6.1,5.19,6.31,5Z" transform="translate(-1.2 -0.65)"/><path class="cls-1" d="M26.06,5.8a4.85,4.85,0,0,1-.44.65c-.83.85-1.68,1.69-2.52,2.53-.34.33-.72.55-1.13.16s-.23-.82.12-1.18c.85-.86,1.7-1.74,2.59-2.56a1.12,1.12,0,0,1,.87-.2C25.73,5.24,25.87,5.57,26.06,5.8Z" transform="translate(-1.2 -0.65)"/><path class="cls-1" d="M6.27,25.44c-.16-.12-.44-.22-.5-.39a.94.94,0,0,1,.05-.78c1-1,1.93-2,3-2.94a.87.87,0,0,1,.85.07.87.87,0,0,1,.11.84c-1,1-2,2-3,3C6.68,25.35,6.49,25.36,6.27,25.44Z" transform="translate(-1.2 -0.65)"/><path class="cls-1" d="M26,24.77c-.11.16-.2.44-.38.51a.93.93,0,0,1-.78,0c-1-1-2-1.93-2.95-3a.68.68,0,0,1,.89-1c1.05,1,2,2,3.05,3C25.91,24.41,25.92,24.57,26,24.77Z" transform="translate(-1.2 -0.65)"/></svg>